# xmcd
#
# Track frame offsets: 
#        150
#        20353
#        38629
#        56781
#        78135
#        100845
#        121429
#        143721
#        163726
#        182688
#        208928
#        233389
#        256533
#        280371
#        300924
#        321471
#
# Disc length: 4581 seconds
#
# Revision: 0
# Processed by: cddbd v1.5.2PL0 Copyright (c) Steve Scherf et al.
# Submitted via: ExactAudioCopyFreeDBPlugin 1.0
#
DISCID=cf11e310
DTITLE=群星 - 发烧老情歌(男人篇)CD1
DYEAR=2008
DGENRE=Acid
TTITLE0=梦醒时分（江智民）
TTITLE1=往事如昔（刘亮鹭）
TTITLE2=女人花（阿强）
TTITLE3=橄榄树（刘亮鹭）
TTITLE4=爱情故事（邓杰）
TTITLE5=爱的代价（刘亮鹭）
TTITLE6=把悲伤留给自己（阿强）
TTITLE7=你的样子（张恒）
TTITLE8=最真的梦（钟明秋）
TTITLE9=城里的月光（江智民）
TTITLE10=枕着你的名字入睡（江智民）
TTITLE11=为爱痴狂（邓杰）
TTITLE12=盛夏的果实（刘亮鹭）
TTITLE13="明天你是否依然爱我（丁咚）
TTITLE14=等你等到我心痛（包伍）
TTITLE15=那一场风花雪月的事（江智民）
EXTD=
EXTT0=
EXTT1=
EXTT2=
EXTT3=
EXTT4=
EXTT5=
EXTT6=
EXTT7=
EXTT8=
EXTT9=
EXTT10=
EXTT11=
EXTT12=
EXTT13=
EXTT14=
EXTT15=
PLAYORDER=
